<?xml version="1.0" standalone="no"?>
<!DOCTYPE svg PUBLIC "-//W3C//DTD SVG 20010904//EN"
 "http://www.w3.org/TR/2001/REC-SVG-20010904/DTD/svg10.dtd">
<svg version="1.0" xmlns="http://www.w3.org/2000/svg"
 width="1600.000000pt" height="1600.000000pt" viewBox="0 0 1600.000000 1600.000000"
 preserveAspectRatio="xMidYMid meet">
<metadata>
Created by potrace 1.14, written by Peter Selinger 2001-2017
</metadata>
<g transform="translate(0.000000,1600.000000) scale(0.100000,-0.100000)"
fill="#000000" stroke="none">
<path d="M0 8416 c0 -5659 3 -7587 12 -7592 8 -5 9 1 4 21 -6 22 -4 26 8 22 9
-4 18 -2 21 3 4 6 1 10 -4 10 -6 0 -11 5 -11 11 0 5 5 7 11 4 14 -9 44 34 42
60 -2 11 0 14 3 7 3 -6 10 -10 15 -6 5 3 3 15 -6 27 -8 12 -15 28 -14 37 0 13
1 13 6 0 4 -8 13 -21 21 -29 13 -13 14 -12 7 8 -6 19 -4 23 7 18 14 -5 20 4
100 139 10 17 14 35 10 39 -4 5 -2 5 4 2 12 -7 94 108 94 130 0 6 7 16 15 23
11 9 14 23 10 44 -4 24 -3 26 4 11 l9 -20 8 20 c4 11 14 25 21 30 17 13 31 81
15 71 -8 -5 -10 -2 -6 8 3 9 10 16 16 16 5 0 6 -5 3 -10 -3 -6 -1 -10 5 -10 7
0 9 13 4 38 -6 35 -5 36 10 17 13 -17 15 -17 16 -4 0 9 6 22 14 28 19 16 31
82 16 91 -9 5 -9 9 -1 14 6 4 11 2 11 -3 0 -26 18 -8 24 24 7 35 42 114 76
173 11 17 18 32 15 32 -11 0 104 109 147 139 29 21 44 39 41 47 -3 8 -1 14 5
14 6 0 12 -5 14 -12 3 -7 10 -8 17 -4 11 7 11 10 0 18 -10 7 -7 8 11 4 15 -3
44 4 73 18 65 32 88 26 79 -22 -8 -45 -8 -129 0 -200 7 -61 18 -81 18 -32 0
44 6 36 13 -18 3 -24 1 -40 -4 -36 -12 7 -11 -4 4 -47 8 -24 17 -34 27 -31 12
4 12 2 3 -8 -9 -10 -9 -18 -1 -34 12 -21 12 -21 20 4 5 18 6 15 2 -12 -6 -44
13 -89 27 -67 7 10 8 6 4 -12 -4 -16 -1 -32 7 -40 7 -8 19 -25 26 -40 7 -14
26 -39 43 -57 16 -17 29 -35 29 -40 0 -13 47 -55 52 -45 3 4 3 3 2 -4 -3 -11
63 -105 79 -111 4 -2 7 -7 7 -12 0 -18 69 -120 73 -108 2 7 3 4 1 -6 -2 -11 5
-34 16 -50 10 -17 30 -62 45 -101 15 -38 31 -79 35 -90 37 -89 74 -405 49
-420 -12 -8 -12 -92 1 -100 5 -3 10 -11 10 -17 0 -6 -8 -4 -18 5 -17 15 -18
15 -19 -3 -1 -11 2 -20 8 -20 5 0 9 -8 9 -17 0 -15 -2 -16 -10 -3 -11 17 -11
17 -35 -40 -10 -25 -25 -52 -32 -61 -15 -18 -17 -39 -3 -39 5 0 7 -7 3 -16 -4
-12 -7 -13 -14 -3 -4 8 -10 11 -12 9 -24 -30 -68 -103 -63 -107 6 -7 -32 -43
-46 -43 -5 0 -6 -10 -3 -22 4 -15 3 -19 -3 -10 -7 10 -11 10 -22 -3 -11 -13
45 -15 568 -15 455 0 581 3 585 13 4 9 6 9 6 0 1 -7 5 -13 9 -13 5 0 3 28 -5
63 -17 76 -26 154 -27 227 0 30 -4 58 -9 61 -4 3 -8 19 -9 35 -1 42 21 193 33
232 6 18 11 58 11 90 1 34 4 49 8 37 5 -15 11 -8 25 35 9 30 24 65 31 78 8 12
12 22 8 22 -3 0 4 15 15 34 12 19 18 41 15 50 -4 10 -1 16 9 16 9 0 19 9 22
20 4 11 11 17 17 14 8 -5 9 -1 5 10 -4 9 -3 15 2 12 5 -3 16 5 25 19 9 13 24
32 33 42 68 70 78 84 63 94 -12 8 -10 9 7 4 16 -4 30 2 50 22 32 32 95 82 127
100 18 11 19 13 3 13 -10 0 -15 5 -12 11 4 6 13 8 21 5 17 -6 74 13 74 25 0 5
23 19 50 31 35 15 46 24 38 31 -9 6 -7 7 5 3 10 -3 35 1 55 10 30 12 34 17 22
25 -12 8 -10 9 6 4 13 -3 31 2 47 15 14 11 29 20 34 20 4 0 1 -5 -7 -11 -12
-9 -12 -10 3 -5 10 3 23 6 28 6 6 0 8 4 5 9 -4 5 3 7 14 4 11 -3 20 -1 20 4 0
5 6 10 13 10 7 0 39 8 72 18 184 54 321 108 318 123 -1 6 6 8 17 5 12 -3 22 1
26 11 3 9 13 16 22 16 8 0 30 11 48 25 18 14 38 25 44 25 6 0 8 5 5 10 -3 6
-1 10 5 10 6 0 8 5 4 12 -4 6 -3 8 2 5 6 -3 16 -1 24 4 13 8 13 10 0 20 -12 8
-8 9 14 4 23 -5 27 -3 23 9 -4 9 -1 15 6 13 7 -1 11 6 9 15 -2 11 2 16 10 13
13 -5 44 33 35 42 -3 2 3 13 14 24 14 14 17 27 13 46 -5 18 -4 24 5 19 8 -5 8
0 1 19 -14 36 -12 42 5 19 12 -16 14 -17 15 -2 0 9 3 23 6 31 3 8 -2 21 -10
30 -9 9 -16 24 -16 33 0 16 1 16 16 -2 15 -18 15 -18 10 8 -6 25 -4 27 23 25
16 -1 27 -6 24 -11 -3 -4 -1 -11 4 -15 5 -3 19 -21 32 -39 18 -26 26 -31 32
-20 7 10 9 10 9 0 0 -7 4 -10 10 -7 5 3 10 1 10 -5 0 -7 -7 -10 -15 -6 -8 3
-15 4 -15 2 0 -8 85 -131 92 -134 4 -2 8 -10 8 -18 0 -7 6 -12 13 -10 6 1 9 1
5 -1 -15 -9 -8 -32 14 -49 13 -9 16 -14 7 -11 -16 5 -16 3 -1 -33 11 -25 20
-34 25 -27 6 8 7 6 4 -4 -3 -9 -2 -47 3 -84 7 -56 5 -77 -11 -124 -37 -105
-38 -110 -26 -115 7 -2 5 -5 -4 -5 -30 -2 -43 -75 -44 -243 0 -112 4 -161 13
-170 6 -6 12 -25 12 -40 0 -31 16 -38 23 -10 3 9 3 -2 0 -25 -4 -29 -2 -43 6
-43 6 0 11 -9 11 -21 0 -12 23 -66 50 -121 28 -55 50 -106 50 -114 0 -8 4 -14
8 -14 5 0 19 -21 32 -46 12 -26 31 -49 41 -51 11 -3 19 -10 19 -15 0 -5 -4 -6
-10 -3 -12 8 -13 -7 -1 -20 7 -9 37 -61 86 -152 9 -18 14 -20 25 -10 10 10 12
8 7 -11 -3 -14 4 -42 20 -73 20 -41 27 -48 39 -38 9 7 14 8 14 1 0 -6 -5 -12
-12 -14 -8 -3 -4 -21 14 -59 14 -30 28 -65 32 -79 4 -14 12 -35 18 -47 l11
-23 309 0 308 0 0 481 0 481 -70 80 c-39 44 -76 88 -83 99 -6 10 -17 19 -23
19 -7 0 -15 7 -18 16 -3 9 -11 12 -18 8 -10 -6 -10 -5 -1 7 9 11 8 20 -7 39
-11 14 -20 31 -20 38 0 6 -4 12 -9 12 -11 0 -60 103 -68 143 -3 15 -9 27 -14
27 -5 0 -9 11 -9 25 0 13 -7 50 -15 82 -20 74 -29 267 -14 294 10 20 11 20 29
2 9 -10 16 -21 13 -25 -11 -19 285 -288 317 -288 4 0 10 15 14 33 6 32 17 325
21 527 0 58 5 113 9 123 5 10 4 17 -3 17 -6 0 -11 16 -10 38 0 30 2 33 9 17 8
-19 9 -19 9 3 1 12 -3 22 -9 22 -5 0 -9 15 -9 33 l1 32 8 -30 8 -30 2 35 c2
19 4 96 5 170 4 164 15 442 21 490 12 96 23 269 33 490 12 249 30 584 57 1035
8 138 21 367 29 510 16 275 36 611 60 990 8 127 19 309 25 405 11 195 29 482
80 1295 11 171 29 438 40 595 11 157 20 286 20 286 0 1 -21 9 -47 19 -530 197
-812 752 -658 1292 27 93 99 249 138 296 l22 29 30 -22 30 -22 -28 26 -28 26
30 39 c54 68 180 179 258 228 98 61 213 107 336 135 91 21 97 24 98 48 0 14 4
61 9 105 5 44 16 166 25 270 19 234 33 380 41 421 6 31 7 32 82 43 43 5 100
13 128 16 58 6 54 9 171 -118 62 -66 87 -79 111 -55 26 26 10 55 -86 156 l-97
102 -74 0 c-41 0 -103 -5 -138 -11 -35 -6 -66 -9 -69 -6 -7 7 31 151 73 276
197 589 593 1315 870 1595 85 86 145 123 231 141 320 67 687 -97 961 -430 139
-168 335 -579 474 -995 71 -211 157 -506 157 -537 0 -6 -26 -13 -57 -17 -74
-9 -129 -34 -225 -103 -89 -64 -104 -83 -88 -113 17 -32 50 -24 125 33 39 29
88 61 110 72 40 19 165 34 165 20 0 -4 11 -58 24 -119 60 -274 87 -429 120
-689 13 -98 27 -182 32 -186 5 -4 41 -20 81 -35 86 -33 224 -117 303 -186 55
-47 170 -179 170 -194 0 -4 11 -22 25 -40 32 -42 90 -169 115 -249 59 -194 60
-409 3 -606 -75 -262 -264 -498 -505 -629 -34 -19 -66 -37 -69 -41 -4 -3 -1
-150 7 -325 14 -348 30 -1026 40 -1786 7 -556 -10 -1816 -41 -2975 -3 -104 -8
-306 -11 -447 -3 -142 -9 -258 -11 -258 -3 0 -37 30 -76 68 -269 256 -346 328
-406 378 -19 16 -49 43 -67 61 -19 17 -53 46 -76 65 -24 18 -52 41 -63 51 -11
10 -74 62 -140 115 -66 52 -127 102 -135 109 -31 27 -129 102 -220 169 -52 38
-102 74 -110 81 -34 28 -298 212 -400 280 -19 13 -42 28 -50 33 -18 13 -131
86 -260 169 -52 34 -102 66 -110 71 -41 27 -129 81 -260 160 -80 48 -187 113
-238 144 -95 57 -125 70 -84 36 20 -16 73 -64 196 -175 148 -133 214 -193 231
-210 12 -11 59 -54 106 -95 46 -41 91 -82 100 -90 9 -8 63 -58 120 -110 203
-186 245 -226 348 -325 333 -319 612 -611 799 -835 34 -41 69 -82 76 -90 82
-93 368 -470 509 -672 32 -46 90 -128 129 -183 l71 -100 -7 -285 c-4 -157 -11
-391 -16 -520 -4 -129 -6 -237 -4 -239 2 -2 5 16 5 40 2 33 3 36 6 15 3 -16 0
-48 -6 -70 -15 -61 -26 -386 -12 -386 7 0 12 30 13 83 1 59 3 68 6 32 2 -27 0
-79 -4 -115 -6 -55 -9 -61 -15 -35 -4 18 -7 -19 -8 -91 l-1 -121 25 5 c14 2
25 8 25 13 0 5 8 9 18 9 9 0 39 11 66 25 27 14 53 25 58 25 5 0 24 11 42 25
18 14 38 25 44 25 6 0 9 6 6 14 -4 11 0 13 16 9 16 -4 23 0 27 16 5 19 14 25
28 19 6 -4 40 45 38 54 -2 4 3 5 10 3 22 -8 33 5 88 112 15 29 30 49 34 45 4
-4 5 9 1 28 -3 19 -2 27 2 17 6 -14 14 -8 44 38 23 35 35 63 32 77 -4 21 -4
21 4 3 8 -18 11 -15 27 20 14 28 16 40 7 43 -7 2 -12 8 -12 14 0 7 5 6 14 -2
12 -9 21 -5 45 22 20 22 28 39 24 52 -4 14 -1 18 11 13 22 -9 48 20 41 47 -2
11 -2 15 1 8 8 -18 85 44 77 64 -4 10 0 12 11 8 12 -5 15 -2 9 12 -4 11 -3 15
5 10 6 -4 35 9 63 29 28 19 62 38 75 41 13 3 24 11 24 16 0 6 7 5 16 -3 13
-10 17 -10 25 2 5 9 9 10 9 2 0 -6 -5 -15 -10 -18 -12 -8 -50 -84 -50 -101 0
-7 -6 -19 -13 -26 -19 -19 -48 -144 -41 -173 4 -15 2 -25 -5 -25 -6 0 -11 -14
-11 -31 0 -17 4 -28 10 -24 6 4 8 -10 4 -38 -9 -66 23 -156 98 -271 13 -20 28
-34 35 -31 7 2 10 -2 7 -9 -7 -19 16 -31 28 -15 7 11 8 9 4 -5 -9 -26 21 -58
48 -50 14 3 17 2 8 -3 -9 -7 -4 -17 20 -39 17 -16 27 -22 23 -14 -5 8 4 3 20
-12 15 -16 32 -28 37 -28 4 0 26 -11 47 -25 21 -15 45 -23 54 -19 9 3 24 1 34
-5 15 -9 13 -10 -12 -5 l-30 6 25 -21 c14 -11 28 -21 31 -21 4 0 9 -10 13 -22
5 -20 8 -21 17 -8 9 12 10 12 5 -4 -4 -10 0 -28 7 -40 7 -12 19 -42 27 -68
l13 -48 2147 0 2148 0 5 68 c3 37 8 81 11 97 3 17 3 22 0 13 -3 -10 -10 -18
-15 -18 -12 0 -12 3 6 36 8 16 15 23 15 17 0 -24 18 -13 34 21 9 19 13 42 10
53 -4 14 -4 15 4 4 8 -11 12 -9 22 9 10 18 10 21 -2 15 -7 -5 -1 3 15 18 15
14 27 33 27 42 0 10 5 13 12 9 7 -5 9 -2 5 9 -4 11 -2 14 9 10 7 -3 14 -1 14
3 0 5 25 36 55 69 30 33 53 66 50 73 -3 7 0 10 6 7 5 -4 29 11 52 32 24 21 58
49 77 63 53 38 160 145 176 176 8 15 12 34 9 42 -3 10 0 12 10 8 8 -3 14 -2
13 2 -1 4 5 23 13 42 9 19 20 55 27 80 23 93 24 313 1 255 -5 -13 -7 0 -7 35
1 33 3 42 5 23 2 -18 9 -33 14 -33 7 0 8 12 3 32 -8 38 -8 67 1 77 9 8 36 -29
29 -40 -9 -16 102 -133 141 -149 6 -2 15 -9 22 -15 33 -34 110 -74 131 -68
l22 5 0 7439 0 7439 -8000 0 -8000 0 0 -7584z m14803 -3672 c-3 -9 0 -20 8
-24 7 -5 10 -12 6 -17 -5 -4 -12 -1 -17 7 -8 12 -10 11 -10 -5 0 -18 -2 -17
-13 5 -14 26 -12 44 2 21 6 -9 10 -7 14 8 3 12 8 21 11 21 3 0 3 -7 -1 -16z
m107 -84 c0 -5 -2 -10 -4 -10 -3 0 -8 5 -11 10 -3 6 -1 10 4 10 6 0 11 -4 11
-10z m-2 -65 c-3 -3 -9 2 -12 12 -6 14 -5 15 5 6 7 -7 10 -15 7 -18z m49 -31
c-3 -3 -12 -4 -19 -1 -8 3 -5 6 6 6 11 1 17 -2 13 -5z m33 -74 c0 -5 -5 -10
-11 -10 -5 0 -7 5 -4 10 3 6 8 10 11 10 2 0 4 -4 4 -10z m69 -130 c0 -10 -3
-8 -9 5 -12 27 -12 43 0 25 5 -8 9 -22 9 -30z m-369 -21 c-7 -11 -14 -19 -16
-16 -7 7 7 37 17 37 6 0 5 -9 -1 -21z m-40 -15 c0 -8 -19 -13 -24 -6 -3 5 1 9
9 9 8 0 15 -2 15 -3z m435 -5 c11 -16 1 -19 -13 -3 -7 8 -8 14 -3 14 5 0 13
-5 16 -11z m52 -121 c-3 -8 -6 -5 -6 6 -1 11 2 17 5 13 3 -3 4 -12 1 -19z
m-587 -8 c0 -5 -5 -10 -11 -10 -5 0 -7 5 -4 10 3 6 8 10 11 10 2 0 4 -4 4 -10z
m-12850 -4 c0 -2 -7 -7 -16 -10 -8 -3 -12 -2 -9 4 6 10 25 14 25 6z m13427
-58 c-2 -13 -4 -5 -4 17 -1 22 1 32 4 23 2 -10 2 -28 0 -40z m30 10 c-3 -8 -6
-5 -6 6 -1 11 2 17 5 13 3 -3 4 -12 1 -19z m-13557 -6 c0 -5 -12 -14 -27 -21
l-28 -12 25 21 c29 22 30 23 30 12z m167 -14 c-3 -8 -6 -5 -6 6 -1 11 2 17 5
13 3 -3 4 -12 1 -19z m23 -73 c0 -17 -2 -17 -10 -5 -5 8 -10 24 -10 35 0 17 2
17 10 5 5 -8 10 -24 10 -35z m-270 25 c0 -5 -5 -10 -11 -10 -5 0 -7 5 -4 10 3
6 8 10 11 10 2 0 4 -4 4 -10z m13660 0 c0 -5 -4 -10 -10 -10 -5 0 -10 5 -10
10 0 6 5 10 10 10 6 0 10 -4 10 -10z m-13700 -10 c-8 -5 -19 -10 -25 -10 -5 0
-3 5 5 10 8 5 20 10 25 10 6 0 3 -5 -5 -10z m12966 -48 c-15 -15 -15 -15 -4
10 7 15 15 23 17 17 2 -6 -4 -18 -13 -27z m704 22 c0 -8 -5 -12 -10 -9 -6 4
-8 11 -5 16 9 14 15 11 15 -7z m-13630 2 c0 -9 -30 -14 -35 -6 -4 6 3 10 14
10 12 0 21 -2 21 -4z m12960 -26 c0 -5 -5 -10 -11 -10 -5 0 -7 5 -4 10 3 6 8
10 11 10 2 0 4 -4 4 -10z m-13135 -70 c-3 -5 -11 -10 -16 -10 -6 0 -7 5 -4 10
3 6 11 10 16 10 6 0 7 -4 4 -10z m-150 -89 c-3 -6 -11 -11 -17 -11 -6 0 -6 6
2 15 14 17 26 13 15 -4z m14012 -3 c-3 -8 -6 -5 -6 6 -1 11 2 17 5 13 3 -3 4
-12 1 -19z m-13232 2 c-3 -5 -14 -10 -23 -9 -14 0 -13 2 3 9 27 11 27 11 20 0z
m12405 -19 c0 -6 -4 -13 -10 -16 -5 -3 -10 1 -10 9 0 9 5 16 10 16 6 0 10 -4
10 -9z m-13270 -46 c0 -7 -6 -15 -12 -18 -8 -3 -13 4 -13 18 0 14 5 21 13 18
6 -3 12 -11 12 -18z m2800 -15 c0 -11 -2 -20 -4 -20 -2 0 -6 9 -9 20 -3 11 -1
20 4 20 5 0 9 -9 9 -20z m11307 -2 c-3 -8 -6 -5 -6 6 -1 11 2 17 5 13 3 -3 4
-12 1 -19z m-15046 -5 c13 -16 12 -17 -3 -4 -10 7 -18 15 -18 17 0 8 8 3 21
-13z m14216 -15 c-3 -7 -5 -2 -5 12 0 14 2 19 5 13 2 -7 2 -19 0 -25z m-40
-10 c-3 -8 -6 -5 -6 6 -1 11 2 17 5 13 3 -3 4 -12 1 -19z m-13295 -38 c4 0 8
-4 8 -10 0 -18 -22 -10 -27 10 -3 11 -10 20 -15 20 -5 0 -6 5 -2 12 5 8 11 5
17 -10 6 -12 14 -22 19 -22z m2914 -7 c-4 -4 -11 -1 -16 7 -16 25 -11 35 7 17
9 -9 13 -20 9 -24z m10411 15 c-3 -8 -6 -5 -6 6 -1 11 2 17 5 13 3 -3 4 -12 1
-19z m-14172 -8 c3 -5 -1 -10 -9 -10 -9 0 -16 5 -16 10 0 6 4 10 9 10 6 0 13
-4 16 -10z m3810 -10 c3 -6 -1 -7 -9 -4 -18 7 -21 14 -7 14 6 0 13 -4 16 -10z
m-36 -50 c0 -10 -3 -8 -9 5 -12 27 -12 43 0 25 5 -8 9 -22 9 -30z m11247 -90
c-2 -8 -5 1 -6 20 -1 30 -3 32 -11 15 -8 -17 -9 -17 -4 5 2 14 5 41 6 60 1 26
4 19 10 -25 5 -33 7 -67 5 -75z m-14245 97 c-10 -9 -11 -8 -5 6 3 10 9 15 12
12 3 -3 0 -11 -7 -18z m-28 -52 c-3 -9 -8 -14 -10 -11 -3 3 -2 9 2 15 9 16 15
13 8 -4z m3024 -57 c-2 -13 -4 -3 -4 22 0 25 2 35 4 23 2 -13 2 -33 0 -45z
m-3627 11 c0 -5 -4 -9 -10 -9 -5 0 -10 7 -10 16 0 8 5 12 10 9 6 -3 10 -10 10
-16z m598 -40 c-3 -20 -5 -19 -9 9 -3 20 -2 29 4 23 5 -5 7 -19 5 -32z m1497
31 c3 -5 -1 -10 -9 -10 -9 0 -16 5 -16 10 0 6 4 10 9 10 6 0 13 -4 16 -10z
m1775 -48 c0 -15 -2 -15 -10 -2 -13 20 -13 33 0 25 6 -3 10 -14 10 -23z
m10087 6 c-3 -8 -6 -5 -6 6 -1 11 2 17 5 13 3 -3 4 -12 1 -19z m920 -10 c-3
-7 -5 -2 -5 12 0 14 2 19 5 13 2 -7 2 -19 0 -25z m-14270 -40 c-3 -7 -5 -2 -5
12 0 14 2 19 5 13 2 -7 2 -19 0 -25z m1579 5 c-6 -6 -36 9 -36 18 0 5 9 4 20
-3 10 -7 18 -14 16 -15z m-1596 -3 c0 -5 -4 -10 -10 -10 -5 0 -10 5 -10 10 0
6 5 10 10 10 6 0 10 -4 10 -10z m9733 3 c-7 -2 -19 -2 -25 0 -7 3 -2 5 12 5
14 0 19 -2 13 -5z m130 -5 c-25 -12 -31 -28 -10 -28 6 0 -1 -7 -17 -15 -32
-17 -51 -20 -23 -4 9 5 17 16 17 24 0 14 27 35 45 34 6 0 0 -5 -12 -11z m3495
-29 c-3 -8 -7 -3 -11 10 -4 17 -3 21 5 13 5 -5 8 -16 6 -23z m-10343 11 c3 -5
1 -10 -4 -10 -6 0 -11 5 -11 10 0 6 2 10 4 10 3 0 8 -4 11 -10z m6785 6 c0 -3
-4 -8 -10 -11 -5 -3 -10 -1 -10 4 0 6 5 11 10 11 6 0 10 -2 10 -4z m-285 -26
c-3 -5 -14 -10 -23 -10 -15 0 -15 2 -2 10 20 13 33 13 25 0z m-9937 -25 c-3
-3 -9 2 -12 12 -6 14 -5 15 5 6 7 -7 10 -15 7 -18z m3752 -8 c0 -5 -4 -5 -10
-2 -5 3 -10 14 -10 23 0 15 2 15 10 2 5 -8 10 -19 10 -23z m6110 3 c0 -5 -5
-10 -11 -10 -5 0 -7 5 -4 10 3 6 8 10 11 10 2 0 4 -4 4 -10z m4851 -31 c-5
-13 -10 -19 -10 -12 -1 15 10 45 15 40 3 -2 0 -15 -5 -28z m-914 -1 c-3 -8 -6
-5 -6 6 -1 11 2 17 5 13 3 -3 4 -12 1 -19z m-10406 -15 c-12 -20 -14 -14 -5
12 4 9 9 14 11 11 3 -2 0 -13 -6 -23z m352 -48 c5 -28 4 -34 -3 -20 -8 19 -14
73 -6 64 2 -2 6 -22 9 -44z m-1513 15 c0 -5 -4 -10 -10 -10 -5 0 -10 5 -10 10
0 6 5 10 10 10 6 0 10 -4 10 -10z m2470 -5 c7 -9 8 -15 2 -15 -5 0 -12 7 -16
15 -3 8 -4 15 -2 15 2 0 9 -7 16 -15z m5086 0 c17 -16 14 -18 -10 -9 -9 3 -16
10 -16 15 0 13 9 11 26 -6z m-6386 -10 c0 -8 -4 -15 -10 -15 -5 0 -7 7 -4 15
4 8 8 15 10 15 2 0 4 -7 4 -15z m1345 5 c3 -5 1 -10 -4 -10 -6 0 -11 5 -11 10
0 6 2 10 4 10 3 0 8 -4 11 -10z m5335 1 c0 -5 -7 -12 -16 -15 -14 -5 -15 -4
-4 9 14 17 20 19 20 6z m-10010 -43 c0 -20 -18 -5 -23 19 -5 26 -4 26 9 8 8
-10 14 -22 14 -27z m277 -5 c-3 -10 -5 -4 -5 12 0 17 2 24 5 18 2 -7 2 -21 0
-30z m1881 12 c0 -13 -4 -22 -9 -19 -5 3 -9 14 -9 25 0 10 4 19 9 19 5 0 9
-11 9 -25z m9292 -5 c0 -5 -2 -10 -4 -10 -3 0 -8 5 -11 10 -3 6 -1 10 4 10 6
0 11 -4 11 -10z m2344 -16 c3 -8 2 -12 -4 -9 -6 3 -10 10 -10 16 0 14 7 11 14
-7z m-9056 -30 c2 -1 -7 -1 -20 -1 -15 1 -24 8 -24 19 0 16 1 16 21 0 11 -9
21 -18 23 -18z m4856 22 c9 3 16 1 16 -5 0 -6 -7 -12 -15 -12 -28 -3 -33 -4
-41 -11 -4 -5 -12 -8 -18 -8 -5 0 -2 6 9 13 12 9 15 19 10 28 -7 12 -6 12 7 1
8 -7 23 -10 32 -6z m-6344 -6 c0 -5 -2 -10 -4 -10 -3 0 -8 5 -11 10 -3 6 -1
10 4 10 6 0 11 -4 11 -10z m1357 -22 c-3 -8 -6 -5 -6 6 -1 11 2 17 5 13 3 -3
4 -12 1 -19z m6903 18 c0 -2 -7 -7 -16 -10 -8 -3 -12 -2 -9 4 6 10 25 14 25 6z
m2290 -16 c0 -5 -2 -10 -4 -10 -3 0 -8 5 -11 10 -3 6 -1 10 4 10 6 0 11 -4 11
-10z m-3880 -4 c0 -3 -4 -8 -10 -11 -5 -3 -10 -1 -10 4 0 6 5 11 10 11 6 0 10
-2 10 -4z m-9826 -68 c8 -6 8 -8 -1 -8 -15 0 -43 39 -43 60 1 8 8 2 17 -15 9
-16 21 -33 27 -37z m11536 52 c8 -5 11 -10 5 -10 -5 0 -17 5 -25 10 -8 5 -10
10 -5 10 6 0 17 -5 25 -10z m2177 -32 c-3 -7 -5 -2 -5 12 0 14 2 19 5 13 2 -7
2 -19 0 -25z m890 10 c-3 -8 -6 -5 -6 6 -1 11 2 17 5 13 3 -3 4 -12 1 -19z
m-11567 -8 c0 -5 -8 -10 -17 -10 -15 0 -16 2 -3 10 19 12 20 12 20 0z m8480 0
c0 -13 -11 -13 -30 0 -12 8 -11 10 8 10 12 0 22 -4 22 -10z m-11329 -41 c-5
-13 -10 -19 -10 -12 -1 15 10 45 15 40 3 -2 0 -15 -5 -28z m1954 21 c3 -5 1
-10 -4 -10 -6 0 -11 5 -11 10 0 6 2 10 4 10 3 0 8 -4 11 -10z m7246 -27 c-12
-20 -14 -14 -5 12 4 9 9 14 11 11 3 -2 0 -13 -6 -23z m-4884 -5 c-3 -8 -6 -5
-6 6 -1 11 2 17 5 13 3 -3 4 -12 1 -19z m-1551 3 c-3 -5 -16 -11 -28 -14 -22
-6 -22 -5 -4 8 22 17 40 20 32 6z m1827 -12 c-8 -8 -8 -20 -3 -35 5 -13 7 -24
4 -24 -2 0 -8 10 -13 23 -8 20 2 47 17 47 3 0 1 -5 -5 -11z m6912 1 c3 -5 1
-10 -4 -10 -6 0 -11 5 -11 10 0 6 2 10 4 10 3 0 8 -4 11 -10z m-8820 -30 c-3
-5 -12 -10 -18 -10 -7 0 -6 4 3 10 19 12 23 12 15 0z m-2695 -10 c0 -5 -4 -10
-10 -10 -5 0 -10 5 -10 10 0 6 5 10 10 10 6 0 10 -4 10 -10z m2777 4 c-3 -3
-12 -4 -19 -1 -8 3 -5 6 6 6 11 1 17 -2 13 -5z m11657 -9 c3 -8 1 -15 -4 -15
-6 0 -10 7 -10 15 0 8 2 15 4 15 2 0 6 -7 10 -15z m-10147 -27 c-3 -7 -5 -2
-5 12 0 14 2 19 5 13 2 -7 2 -19 0 -25z m-2252 -32 c0 -63 -9 -82 -12 -28 -3
33 3 82 10 82 1 0 2 -24 2 -54z m11575 10 c7 -25 10 -50 7 -58 -3 -7 -6 -2 -6
13 -1 14 -6 30 -13 37 -7 7 -9 12 -5 12 4 0 3 9 -3 20 -6 11 -7 20 -2 20 5 0
15 -20 22 -44z m870 22 c0 -18 -2 -20 -9 -8 -6 8 -7 18 -5 22 9 14 14 9 14
-14z m-5342 -19 c-3 -8 -7 -3 -11 10 -4 17 -3 21 5 13 5 -5 8 -16 6 -23z
m4429 -1 c-3 -8 -6 -5 -6 6 -1 11 2 17 5 13 3 -3 4 -12 1 -19z m-2280 -25 c-3
-10 -5 -4 -5 12 0 17 2 24 5 18 2 -7 2 -21 0 -30z m3163 17 c0 -5 -5 -10 -11
-10 -5 0 -7 5 -4 10 3 6 8 10 11 10 2 0 4 -4 4 -10z m-4896 -34 c-3 -15 -8
-25 -11 -23 -2 3 -1 17 3 31 3 15 8 25 11 23 2 -3 1 -17 -3 -31z m2157 7 c13
-16 12 -17 -3 -4 -10 7 -18 15 -18 17 0 8 8 3 21 -13z m-2589 -15 c-6 -6 -15
-8 -19 -4 -4 4 -1 11 7 16 8 5 17 7 19 4 3 -2 -1 -10 -7 -16z m-5645 -20 c-3
-7 -5 -2 -5 12 0 14 2 19 5 13 2 -7 2 -19 0 -25z m1150 -40 c-3 -7 -5 -2 -5
12 0 14 2 19 5 13 2 -7 2 -19 0 -25z m-2156 4 c-7 -2 -18 1 -23 6 -8 8 -4 9
13 5 13 -4 18 -8 10 -11z m9269 8 c0 -5 -5 -10 -11 -10 -5 0 -7 5 -4 10 3 6 8
10 11 10 2 0 4 -4 4 -10z m1867 -12 c-3 -8 -6 -5 -6 6 -1 11 2 17 5 13 3 -3 4
-12 1 -19z m-11547 6 c0 -3 -7 -12 -15 -20 -16 -17 -18 -14 -9 10 6 15 24 23
24 10z m375 -12 c-3 -3 -11 0 -18 7 -9 10 -8 11 6 5 10 -3 15 -9 12 -12z m-65
-22 c0 -5 -5 -10 -11 -10 -5 0 -7 5 -4 10 3 6 8 10 11 10 2 0 4 -4 4 -10z
m1881 -23 c-8 -8 -11 -7 -11 4 0 20 13 34 18 19 3 -7 -1 -17 -7 -23z m10309
23 c0 -5 -2 -10 -4 -10 -3 0 -8 5 -11 10 -3 6 -1 10 4 10 6 0 11 -4 11 -10z
m-11080 -40 c5 0 10 6 13 13 2 6 2 3 -1 -8 -3 -11 -5 -36 -4 -55 0 -43 -12
-16 -21 45 -3 22 -3 32 -1 23 3 -10 9 -18 14 -18z m8384 5 c-7 -18 -40 -20
-50 -3 -4 7 -3 8 4 4 7 -4 20 -2 29 3 23 14 23 14 17 -4z m-571 -15 c3 -11 1
-18 -3 -15 -5 3 -11 -1 -13 -7 -3 -7 -6 -4 -6 8 -1 17 6 34 15 34 1 0 4 -9 7
-20z m-2233 0 c0 -5 -5 -10 -11 -10 -5 0 -7 5 -4 10 3 6 8 10 11 10 2 0 4 -4
4 -10z m2187 -47 c-3 -10 -5 -4 -5 12 0 17 2 24 5 18 2 -7 2 -21 0 -30z m630
5 c-3 -8 -6 -5 -6 6 -1 11 2 17 5 13 3 -3 4 -12 1 -19z m1813 -4 c0 -8 -5 -12
-10 -9 -6 4 -8 11 -5 16 9 14 15 11 15 -7z m924 -43 c-7 -7 -21 12 -29 39 -6
23 -5 23 14 -5 11 -16 18 -31 15 -34z m-5607 27 c-3 -8 -6 -5 -6 6 -1 11 2 17
5 13 3 -3 4 -12 1 -19z m38 -7 c-3 -12 -10 -21 -15 -21 -5 0 -4 11 2 25 13 29
23 26 13 -4z m2231 -18 c-10 -10 -19 5 -10 18 6 11 8 11 12 0 2 -7 1 -15 -2
-18z m634 17 c0 -5 -4 -10 -10 -10 -5 0 -10 5 -10 10 0 6 5 10 10 10 6 0 10
-4 10 -10z m-7293 -92 c-3 -7 -5 -2 -5 12 0 14 2 19 5 13 2 -7 2 -19 0 -25z
m9073 17 c0 -8 -2 -15 -4 -15 -2 0 -6 7 -10 15 -3 8 -1 15 4 15 6 0 10 -7 10
-15z m-10100 -21 c0 -2 -7 -4 -15 -4 -8 0 -15 4 -15 10 0 5 7 7 15 4 8 -4 15
-8 15 -10z m1007 -26 c-3 -8 -6 -5 -6 6 -1 11 2 17 5 13 3 -3 4 -12 1 -19z
m6603 -18 c-16 -30 -22 -19 -7 13 6 14 13 22 15 17 2 -5 -2 -19 -8 -30z
m-2225 -49 c-12 -11 -24 16 -18 39 l7 25 7 -30 c5 -16 6 -31 4 -34z m579 14
c5 -22 4 -26 -4 -15 -5 8 -10 24 -10 34 0 26 6 18 14 -19z m5196 15 c-8 -15
-8 -20 1 -20 7 0 10 -3 6 -6 -3 -3 -10 -3 -16 1 -11 6 2 45 15 45 2 0 0 -9 -6
-20z m-10922 -7 c-10 -2 -26 -2 -35 0 -10 3 -2 5 17 5 19 0 27 -2 18 -5z
m7392 -3 c0 -5 -4 -10 -10 -10 -5 0 -10 5 -10 10 0 6 5 10 10 10 6 0 10 -4 10
-10z m865 0 c3 -5 1 -10 -4 -10 -6 0 -11 5 -11 10 0 6 2 10 4 10 3 0 8 -4 11
-10z m-7478 -42 c-3 -7 -5 -2 -5 12 0 14 2 19 5 13 2 -7 2 -19 0 -25z m9153 1
c0 -10 -4 -19 -10 -19 -5 0 -10 12 -10 26 0 14 4 23 10 19 6 -3 10 -15 10 -26z
m-2599 -2 c-10 -9 -11 -8 -5 6 3 10 9 15 12 12 3 -3 0 -11 -7 -18z m3649 8
c11 -13 10 -14 -4 -9 -9 3 -16 10 -16 15 0 13 6 11 20 -6z m-5234 -52 c-10
-10 -19 5 -10 18 6 11 8 11 12 0 2 -7 1 -15 -2 -18z m4195 -14 c-5 -13 -10
-19 -10 -12 -1 15 10 45 15 40 3 -2 0 -15 -5 -28z m-4881 11 c0 -5 -5 -10 -11
-10 -5 0 -7 5 -4 10 3 6 8 10 11 10 2 0 4 -4 4 -10z m5950 -11 c0 -6 -4 -7
-10 -4 -5 3 -10 11 -10 16 0 6 5 7 10 4 6 -3 10 -11 10 -16z m-5951 -49 c7
-12 3 -15 -17 -17 -15 0 -20 2 -12 7 7 5 10 16 5 31 -5 19 -4 21 5 9 6 -8 15
-22 19 -30z m2244 20 c-5 -19 -23 -29 -23 -12 0 7 20 32 26 32 1 0 0 -9 -3
-20z m984 -12 c-3 -8 -6 -5 -6 6 -1 11 2 17 5 13 3 -3 4 -12 1 -19z m-7505
-20 c-7 -7 -12 -8 -12 -2 0 14 12 26 19 19 2 -3 -1 -11 -7 -17z m9165 -20 c-3
-8 -6 -5 -6 6 -1 11 2 17 5 13 3 -3 4 -12 1 -19z m-4132 -38 c3 -5 1 -10 -4
-10 -6 0 -11 5 -11 10 0 6 2 10 4 10 3 0 8 -4 11 -10z m5418 -17 c3 -5 -6 -9
-20 -10 -19 -1 -22 1 -12 8 17 11 26 11 32 2z m-4098 -23 c-3 -5 -16 -15 -28
-21 l-22 -12 20 21 c21 22 41 30 30 12z m4150 -20 c3 -5 1 -10 -4 -10 -6 0
-11 5 -11 10 0 6 2 10 4 10 3 0 8 -4 11 -10z m-6327 -30 c-7 -10 -14 -18 -15
-16 -6 6 9 36 18 36 5 0 4 -9 -3 -20z m942 -10 c0 -5 -5 -10 -11 -10 -5 0 -7
5 -4 10 3 6 8 10 11 10 2 0 4 -4 4 -10z m1090 -60 c0 -5 -4 -10 -10 -10 -5 0
-10 5 -10 10 0 6 5 10 10 10 6 0 10 -4 10 -10z m-2110 -10 c0 -5 -4 -10 -10
-10 -5 0 -10 5 -10 10 0 6 5 10 10 10 6 0 10 -4 10 -10z m-5340 -70 c0 -5 -4
-10 -10 -10 -5 0 -10 5 -10 10 0 6 5 10 10 10 6 0 10 -4 10 -10z m5210 -10 c0
-5 -8 -10 -17 -10 -15 0 -16 2 -3 10 19 12 20 12 20 0z m-50 -10 c8 -5 11 -10
5 -10 -5 0 -17 5 -25 10 -8 5 -10 10 -5 10 6 0 17 -5 25 -10z m3610 -15 c-7
-9 -15 -13 -19 -10 -3 3 1 10 9 15 21 14 24 12 10 -5z m1708 -41 l-3 -39 -5
47 c-3 26 -1 43 3 39 5 -5 7 -26 5 -47z m-13972 25 c-14 -11 -32 -18 -39 -16
-7 3 -4 6 7 6 10 1 16 6 13 14 -3 8 4 14 20 15 l26 2 -27 -21z m3578 5 c10
-25 -1 -29 -14 -5 -6 12 -7 21 -1 21 5 0 12 -7 15 -16z m5012 -3 c-3 -5 -15
-11 -26 -14 -17 -4 -19 -3 -9 9 12 15 44 20 35 5z m24 -31 c-20 -13 -33 -13
-25 0 3 6 14 10 23 10 15 0 15 -2 2 -10z m3621 -33 c-10 -9 -11 -8 -5 6 3 10
9 15 12 12 3 -3 0 -11 -7 -18z m-3654 7 c-3 -3 -12 -4 -19 -1 -8 3 -5 6 6 6
11 1 17 -2 13 -5z m-8300 -26 c-3 -8 -6 -5 -6 6 -1 11 2 17 5 13 3 -3 4 -12 1
-19z m8239 -5 c-10 -10 -19 5 -10 18 6 11 8 11 12 0 2 -7 1 -15 -2 -18z
m-4946 7 c0 -5 -5 -10 -11 -10 -5 0 -7 5 -4 10 3 6 8 10 11 10 2 0 4 -4 4 -10z
m8608 -80 c-12 -19 -28 -27 -28 -14 0 6 30 33 38 34 1 0 -3 -9 -10 -20z m1779
-42 c-2 -13 -4 -3 -4 22 0 25 2 35 4 23 2 -13 2 -33 0 -45z m20 40 c-3 -8 -6
-5 -6 6 -1 11 2 17 5 13 3 -3 4 -12 1 -19z m-9670 -65 c-3 -10 -5 -2 -5 17 0
19 2 27 5 18 2 -10 2 -26 0 -35z m-660 -35 c-3 -8 -6 -5 -6 6 -1 11 2 17 5 13
3 -3 4 -12 1 -19z m-3900 -30 c-3 -7 -5 -2 -5 12 0 14 2 19 5 13 2 -7 2 -19 0
-25z m14222 -5 c0 -35 -1 -36 -10 -14 -5 14 -7 31 -5 38 10 24 16 13 15 -24z
m-9429 -13 c0 -5 -2 -10 -4 -10 -3 0 -8 5 -11 10 -3 6 -1 10 4 10 6 0 11 -4
11 -10z m7587 4 c-3 -3 -12 -4 -19 -1 -8 3 -5 6 6 6 11 1 17 -2 13 -5z m-40
-46 c-3 -8 -6 -5 -6 6 -1 11 2 17 5 13 3 -3 4 -12 1 -19z m30 -10 c-3 -8 -6
-5 -6 6 -1 11 2 17 5 13 3 -3 4 -12 1 -19z m1830 -10 c-3 -7 -5 -2 -5 12 0 14
2 19 5 13 2 -7 2 -19 0 -25z m-1870 -20 c-3 -8 -6 -5 -6 6 -1 11 2 17 5 13 3
-3 4 -12 1 -19z m-9197 -2 c0 -3 -4 -8 -10 -11 -5 -3 -10 -1 -10 4 0 6 5 11
10 11 6 0 10 -2 10 -4z m1720 -26 c0 -5 -4 -10 -9 -10 -6 0 -13 5 -16 10 -3 6
1 10 9 10 9 0 16 -4 16 -10z m-283 -32 c-3 -7 -5 -2 -5 12 0 14 2 19 5 13 2
-7 2 -19 0 -25z m6707 -21 c11 -23 40 -66 64 -95 35 -41 49 -51 66 -47 14 4
17 3 8 -3 -10 -7 -9 -12 5 -24 29 -25 64 -40 80 -34 9 4 13 1 10 -6 -4 -14 51
-53 61 -43 4 3 0 10 -8 15 -9 6 -10 10 -3 10 14 0 43 -28 43 -41 0 -19 38 -51
51 -44 8 5 10 4 5 -4 -4 -6 7 -25 26 -44 l33 -32 0 -118 c0 -90 3 -116 13
-112 7 3 12 -5 12 -20 0 -26 -15 -34 -22 -13 -2 6 -16 -9 -30 -33 -23 -39 -96
-119 -101 -111 -3 5 -37 -7 -75 -25 -28 -14 -38 -15 -68 -4 -19 7 -49 10 -67
6 -19 -4 -27 -3 -20 2 8 6 -4 13 -35 22 -26 8 -73 24 -104 37 -31 13 -64 21
-72 18 -17 -7 -22 11 -7 21 11 6 -51 75 -69 75 -7 0 -10 6 -7 13 5 14 -14 102
-26 113 -19 20 9 206 42 279 13 29 83 171 115 233 33 64 54 67 80 9z m-10564
3 c0 -5 -2 -10 -4 -10 -3 0 -8 5 -11 10 -3 6 -1 10 4 10 6 0 11 -4 11 -10z
m10585 0 c3 -5 1 -10 -4 -10 -6 0 -11 5 -11 10 0 6 2 10 4 10 3 0 8 -4 11 -10z
m1022 -27 c-3 -10 -5 -4 -5 12 0 17 2 24 5 18 2 -7 2 -21 0 -30z m1864 0 c-9
-16 -10 -14 -11 12 0 21 3 26 11 18 8 -8 8 -16 0 -30z m-11278 20 c-7 -2 -19
-2 -25 0 -7 3 -2 5 12 5 14 0 19 -2 13 -5z m8427 -34 c0 -6 -4 -7 -10 -4 -5 3
-10 11 -10 16 0 6 5 7 10 4 6 -3 10 -11 10 -16z m-184 -35 c-4 -9 -9 -15 -11
-12 -3 3 -3 13 1 22 4 9 9 15 11 12 3 -3 3 -13 -1 -22z m3004 -18 c0 -26 -6
-18 -14 19 -5 22 -4 26 4 15 5 -8 10 -24 10 -34z m-1833 -38 c-2 -13 -4 -3 -4
22 0 25 2 35 4 23 2 -13 2 -33 0 -45z m-8426 19 c-10 -9 -11 -8 -5 6 3 10 9
15 12 12 3 -3 0 -11 -7 -18z m8436 -89 c-3 -8 -6 -5 -6 6 -1 11 2 17 5 13 3
-3 4 -12 1 -19z m-1253 -23 c3 -8 1 -15 -4 -15 -6 0 -10 7 -10 15 0 8 2 15 4
15 2 0 6 -7 10 -15z m4066 6 c0 -5 -7 -11 -14 -14 -10 -4 -13 -1 -9 9 6 15 23
19 23 5z m-14296 -27 c5 -14 4 -15 -9 -4 -17 14 -19 20 -6 20 5 0 12 -7 15
-16z m10783 10 c-3 -3 -12 -4 -19 -1 -8 3 -5 6 6 6 11 1 17 -2 13 -5z m-573
-39 c-4 -8 -8 -15 -10 -15 -2 0 -4 7 -4 15 0 8 4 15 10 15 5 0 7 -7 4 -15z
m4206 -4 c0 -6 -4 -13 -10 -16 -5 -3 -10 1 -10 9 0 9 5 16 10 16 6 0 10 -4 10
-9z m-14330 -46 c-7 -8 -17 -15 -22 -15 -11 0 14 29 26 30 5 0 3 -7 -4 -15z
m13126 -22 c-11 -11 -19 6 -11 24 8 17 8 17 12 0 3 -10 2 -21 -1 -24z m-14276
13 c0 -3 -4 -8 -10 -11 -5 -3 -10 -1 -10 4 0 6 5 11 10 11 6 0 10 -2 10 -4z
m12700 -36 c0 -5 -5 -10 -11 -10 -5 0 -7 5 -4 10 3 6 8 10 11 10 2 0 4 -4 4
-10z m1550 1 c0 -14 -38 -20 -43 -7 -3 7 5 13 19 14 13 1 24 -2 24 -7z m-56
-26 c-4 -8 -8 -15 -10 -15 -2 0 -4 7 -4 15 0 8 4 15 10 15 5 0 7 -7 4 -15z
m1452 -32 c-6 -6 -36 9 -36 18 0 5 9 4 20 -3 10 -7 18 -14 16 -15z m-2906 -23
c0 -5 -2 -10 -4 -10 -3 0 -8 5 -11 10 -3 6 -1 10 4 10 6 0 11 -4 11 -10z
m-781 -37 c-1 -37 -1 -37 -8 -8 -7 28 -5 45 5 45 2 0 3 -17 3 -37z m-3032 -15
c-3 -7 -5 -2 -5 12 0 14 2 19 5 13 2 -7 2 -19 0 -25z m-7694 -3 c4 -8 2 -17
-3 -20 -6 -4 -10 3 -10 14 0 25 6 27 13 6z m1167 5 c0 -5 -5 -10 -11 -10 -5 0
-7 5 -4 10 3 6 8 10 11 10 2 0 4 -4 4 -10z m7550 6 c0 -3 -4 -8 -10 -11 -5 -3
-10 -1 -10 4 0 6 5 11 10 11 6 0 10 -2 10 -4z m17 -38 c-3 -8 -6 -5 -6 6 -1
11 2 17 5 13 3 -3 4 -12 1 -19z m2928 12 c8 -13 -15 -13 -35 0 -12 8 -11 10 7
10 12 0 25 -4 28 -10z m2462 -37 c-3 -10 -5 -4 -5 12 0 17 2 24 5 18 2 -7 2
-21 0 -30z m-13007 -23 c0 -5 -5 -10 -11 -10 -5 0 -7 5 -4 10 3 6 8 10 11 10
2 0 4 -4 4 -10z m10787 4 c-3 -3 -12 -4 -19 -1 -8 3 -5 6 6 6 11 1 17 -2 13
-5z m903 2 c0 -3 -4 -8 -10 -11 -5 -3 -10 -1 -10 4 0 6 5 11 10 11 6 0 10 -2
10 -4z m1302 -58 c-6 -6 -7 0 -4 19 5 21 7 23 10 9 2 -10 0 -22 -6 -28z
m-1323 11 c3 -12 2 -12 -11 -1 -11 8 -18 9 -22 3 -4 -6 -14 -7 -24 -4 -14 6
-13 8 8 14 32 9 43 6 49 -12z m-889 1 c-8 -5 -22 -9 -30 -9 -10 0 -8 3 5 9 27
12 43 12 25 0z m85 0 c-3 -5 -15 -10 -26 -10 -10 0 -19 5 -19 10 0 6 12 10 26
10 14 0 23 -4 19 -10z m128 3 c-7 -2 -21 -2 -30 0 -10 3 -4 5 12 5 17 0 24 -2
18 -5z m594 -9 c-3 -3 -12 -4 -19 -1 -8 3 -5 6 6 6 11 1 17 -2 13 -5z m-14147
-28 c0 -3 -4 -8 -10 -11 -5 -3 -10 -1 -10 4 0 6 5 11 10 11 6 0 10 -2 10 -4z
m11467 -18 c-3 -8 -6 -5 -6 6 -1 11 2 17 5 13 3 -3 4 -12 1 -19z m-9930 -10
c-3 -8 -6 -5 -6 6 -1 11 2 17 5 13 3 -3 4 -12 1 -19z m9978 2 c3 -5 1 -10 -4
-10 -6 0 -11 5 -11 10 0 6 2 10 4 10 3 0 8 -4 11 -10z m-7178 -42 c-3 -8 -6
-5 -6 6 -1 11 2 17 5 13 3 -3 4 -12 1 -19z m5393 -38 c0 -5 -5 -10 -11 -10 -5
0 -7 5 -4 10 3 6 8 10 11 10 2 0 4 -4 4 -10z m-7270 -26 c0 -14 -4 -23 -9 -20
-5 3 -7 15 -4 26 7 28 13 25 13 -6z m-933 -26 c-3 -8 -6 -5 -6 6 -1 11 2 17 5
13 3 -3 4 -12 1 -19z m8123 12 c0 -5 -4 -10 -10 -10 -5 0 -10 5 -10 10 0 6 5
10 10 10 6 0 10 -4 10 -10z m32 -22 c-7 -7 -12 -8 -12 -2 0 14 12 26 19 19 2
-3 -1 -11 -7 -17z m2338 3 c0 -5 -13 -12 -30 -16 -16 -4 -30 -11 -30 -16 0 -5
-4 -9 -10 -9 -21 0 -9 18 23 34 37 18 47 20 47 7z m-2365 -51 c-3 -5 -12 -10
-18 -10 -7 0 -6 4 3 10 19 12 23 12 15 0z m-8118 -32 c-3 -7 -5 -2 -5 12 0 14
2 19 5 13 2 -7 2 -19 0 -25z m8553 22 c0 -5 -2 -10 -4 -10 -3 0 -8 5 -11 10
-3 6 -1 10 4 10 6 0 11 -4 11 -10z m5230 -10 c0 -5 -4 -10 -10 -10 -5 0 -10 5
-10 10 0 6 5 10 10 10 6 0 10 -4 10 -10z m20 -19 c0 -5 -7 -12 -16 -15 -14 -5
-15 -4 -4 9 14 17 20 19 20 6z m-5793 -63 c-3 -8 -6 -5 -6 6 -1 11 2 17 5 13
3 -3 4 -12 1 -19z m-7190 -80 c-3 -8 -6 -5 -6 6 -1 11 2 17 5 13 3 -3 4 -12 1
-19z m2213 12 c0 -5 -2 -10 -4 -10 -3 0 -8 5 -11 10 -3 6 -1 10 4 10 6 0 11
-4 11 -10z m5587 -5 c8 -8 13 -20 11 -26 -2 -7 -12 0 -21 15 -19 29 -14 35 10
11z m5017 -14 c3 -5 -3 -11 -15 -14 -16 -4 -18 -3 -8 9 13 16 16 17 23 5z
m-12787 -43 c-3 -8 -6 -5 -6 6 -1 11 2 17 5 13 3 -3 4 -12 1 -19z m-20 -70
c-2 -13 -4 -3 -4 22 0 25 2 35 4 23 2 -13 2 -33 0 -45z m6750 -95 c-2 -16 -4
-3 -4 27 0 30 2 43 4 28 2 -16 2 -40 0 -55z m248 47 c-3 -5 -14 -10 -23 -10
-15 0 -15 2 -2 10 20 13 33 13 25 0z m-6988 -82 c-3 -7 -5 -2 -5 12 0 14 2 19
5 13 2 -7 2 -19 0 -25z m8063 -2 c0 -3 -4 -8 -10 -11 -5 -3 -10 -1 -10 4 0 6
5 11 10 11 6 0 10 -2 10 -4z m40 -16 c0 -5 -2 -10 -4 -10 -3 0 -8 5 -11 10 -3
6 -1 10 4 10 6 0 11 -4 11 -10z m125 -130 c3 -5 1 -10 -4 -10 -6 0 -11 5 -11
10 0 6 2 10 4 10 3 0 8 -4 11 -10z m4302 -52 c-3 -8 -6 -5 -6 6 -1 11 2 17 5
13 3 -3 4 -12 1 -19z m-4272 3 c3 -5 1 -12 -5 -16 -5 -3 -10 1 -10 9 0 18 6
21 15 7z"/>
<path d="M12180 1190 c0 -5 5 -10 10 -10 6 0 10 5 10 10 0 6 -4 10 -10 10 -5
0 -10 -4 -10 -10z"/>
<path d="M6381 10593 c-1 -13 15 -58 35 -100 19 -43 42 -93 51 -112 8 -18 13
-50 11 -71 -3 -34 0 -39 20 -43 12 -2 25 0 28 4 3 5 0 9 -5 9 -6 0 -10 3 -9 8
3 10 -23 85 -33 97 -5 5 -9 17 -9 27 0 10 -4 18 -10 18 -5 0 -7 6 -4 13 3 8
-2 20 -11 27 -8 7 -15 20 -16 29 0 9 -11 39 -24 66 -17 36 -24 44 -24 28z"/>
<path d="M8500 10580 c0 -5 19 -28 41 -52 23 -24 48 -56 55 -73 12 -28 13 -28
14 -6 0 15 -18 41 -50 74 -27 27 -47 54 -44 58 3 5 0 9 -5 9 -6 0 -11 -4 -11
-10z"/>
<path d="M8613 10345 c0 -22 2 -30 4 -17 2 12 2 30 0 40 -3 9 -5 -1 -4 -23z"/>
<path d="M8596 10268 c-3 -17 -3 -35 1 -39 5 -4 9 10 10 32 3 47 -2 51 -11 7z"/>
<path d="M6524 10160 c0 -52 1 -74 3 -47 2 26 2 68 0 95 -2 26 -3 4 -3 -48z"/>
<path d="M5470 10150 c8 -5 20 -10 25 -10 6 0 3 5 -5 10 -8 5 -19 10 -25 10
-5 0 -3 -5 5 -10z"/>
<path d="M9636 10143 c-6 -14 -5 -15 5 -6 7 7 10 15 7 18 -3 3 -9 -2 -12 -12z"/>
<path d="M5524 10126 c11 -9 27 -16 35 -15 14 0 14 1 1 6 -8 3 -24 10 -35 15
-20 9 -20 9 -1 -6z"/>
<path d="M5680 10120 c0 -6 -6 -10 -12 -9 -7 1 -29 0 -48 -1 -35 -2 -34 -2 14
-15 60 -17 77 -33 78 -73 1 -17 5 -29 10 -26 15 9 8 51 -12 77 -11 14 -17 32
-14 41 3 9 1 16 -5 16 -6 0 -11 -5 -11 -10z"/>
<path d="M9530 10050 c-8 -5 -24 -10 -36 -10 -11 0 -29 -7 -40 -15 -18 -14
-17 -14 9 -3 33 14 45 5 58 -44 l8 -33 -2 31 c-1 17 6 43 16 57 18 28 13 34
-13 17z"/>
<path d="M9404 9994 c-18 -14 -18 -15 4 -4 12 6 22 13 22 15 0 8 -5 6 -26 -11z"/>
<path d="M9355 9970 c-3 -6 1 -7 9 -4 18 7 21 14 7 14 -6 0 -13 -4 -16 -10z"/>
<path d="M9318 9953 c7 -3 16 -2 19 1 4 3 -2 6 -13 5 -11 0 -14 -3 -6 -6z"/>
<path d="M9444 9838 l-19 -23 23 19 c21 18 27 26 19 26 -2 0 -12 -10 -23 -22z"/>
<path d="M9370 9779 c-24 -16 -37 -29 -29 -29 8 0 30 13 49 30 44 37 38 37
-20 -1z"/>
<path d="M6078 9779 c-73 -38 -102 -151 -55 -219 38 -57 71 -75 137 -75 66 0
99 18 138 75 28 42 29 107 2 160 -38 74 -142 102 -222 59z"/>
<path d="M7153 9754 c-17 -9 -34 -22 -37 -31 -4 -10 3 -8 23 6 16 12 36 21 44
21 9 0 19 5 22 10 9 15 -15 12 -52 -6z"/>
<path d="M9278 9753 c6 -2 18 -2 25 0 6 3 1 5 -13 5 -14 0 -19 -2 -12 -5z"/>
<path d="M6850 9733 c0 -8 51 -35 56 -30 2 2 -10 11 -26 21 -17 9 -30 14 -30
9z"/>
<path d="M8730 9729 c-62 -26 -100 -85 -100 -156 0 -91 68 -153 167 -153 155
0 210 198 81 293 -31 23 -111 32 -148 16z"/>
<path d="M6819 9713 c-13 -16 -12 -17 4 -4 9 7 17 15 17 17 0 8 -8 3 -21 -13z"/>
<path d="M7074 9705 c-12 -7 -45 -16 -75 -18 l-54 -3 63 -2 c38 -1 62 2 62 9
0 5 4 8 9 4 5 -3 13 0 16 6 11 17 0 20 -21 4z"/>
<path d="M8249 9673 c-13 -16 -12 -17 4 -4 9 7 17 15 17 17 0 8 -8 3 -21 -13z"/>
<path d="M8143 9613 c9 -2 23 -2 30 0 6 3 -1 5 -18 5 -16 0 -22 -2 -12 -5z"/>
<path d="M8005 9590 c3 -5 -1 -10 -10 -10 -10 0 -13 -5 -9 -12 5 -8 2 -9 -9
-5 -9 3 -23 -1 -31 -9 -9 -8 -19 -15 -23 -15 -16 -2 -91 -50 -109 -70 -13 -15
-4 -12 28 10 61 41 136 74 156 69 13 -4 17 2 18 24 1 15 -3 28 -8 28 -5 0 -6
-4 -3 -10z"/>
<path d="M5422 9458 c-14 -14 -16 -28 -3 -28 5 0 11 9 14 20 6 23 5 24 -11 8z"/>
<path d="M5209 9323 c-13 -16 -12 -17 4 -4 9 7 17 15 17 17 0 8 -8 3 -21 -13z"/>
<path d="M5480 9316 c0 -2 7 -7 16 -10 8 -3 12 -2 9 4 -6 10 -25 14 -25 6z"/>
<path d="M6576 9164 c-4 -14 -5 -28 -3 -31 3 -2 8 8 11 23 4 14 5 28 3 31 -3
2 -8 -8 -11 -23z"/>
<path d="M6370 9116 c0 -8 4 -17 9 -20 5 -4 7 3 4 14 -6 23 -13 26 -13 6z"/>
<path d="M6571 9100 c0 -8 4 -22 9 -30 12 -18 12 -2 0 25 -6 13 -9 15 -9 5z"/>
<path d="M8424 9068 c-38 -29 -45 -40 -37 -58 3 -8 9 -35 13 -60 7 -44 7 -43
9 20 2 66 11 88 46 108 11 6 15 12 9 12 -6 0 -24 -10 -40 -22z"/>
<path d="M6400 9061 c5 -11 15 -23 21 -27 6 -3 3 5 -6 20 -20 30 -30 35 -15 7z"/>
<path d="M8500 9076 c0 -2 7 -7 16 -10 8 -3 12 -2 9 4 -6 10 -25 14 -25 6z"/>
<path d="M8360 9040 c0 -5 5 -10 10 -10 6 0 10 5 10 10 0 6 -4 10 -10 10 -5 0
-10 -4 -10 -10z"/>
<path d="M6445 9000 c10 -11 20 -20 23 -20 3 0 -3 9 -13 20 -10 11 -20 20 -23
20 -3 0 3 -9 13 -20z"/>
<path d="M6600 9015 c0 -5 5 -17 10 -25 5 -8 10 -10 10 -5 0 6 -5 17 -10 25
-5 8 -10 11 -10 5z"/>
<path d="M9198 8967 c-3 -19 -2 -25 4 -19 6 6 8 18 6 28 -3 14 -5 12 -10 -9z"/>
<path d="M6480 8966 c0 -2 8 -10 18 -17 15 -13 16 -12 3 4 -13 16 -21 21 -21
13z"/>
<path d="M6606 8929 c-15 -22 -15 -24 2 -33 9 -5 26 -16 36 -25 18 -15 18 -15
7 7 -7 13 -14 33 -16 44 -6 31 -11 32 -29 7z"/>
<path d="M6560 8916 c7 -7 13 -7 20 0 6 6 3 10 -10 10 -13 0 -16 -4 -10 -10z"/>
<path d="M8391 8884 c0 -11 3 -14 6 -6 3 7 2 16 -1 19 -3 4 -6 -2 -5 -13z"/>
<path d="M6680 8820 c12 -16 24 -30 26 -30 3 0 -4 14 -16 30 -12 17 -24 30
-26 30 -3 0 4 -13 16 -30z"/>
<path d="M9121 8794 c0 -11 3 -14 6 -6 3 7 2 16 -1 19 -3 4 -6 -2 -5 -13z"/>
<path d="M8320 8709 c-7 -11 -10 -23 -7 -25 2 -2 9 7 15 21 14 30 7 33 -8 4z"/>
<path d="M9232 8684 c10 -10 20 -16 22 -13 3 3 -5 11 -17 18 -21 13 -21 12 -5
-5z"/>
<path d="M8290 8655 c-7 -9 -8 -15 -2 -15 5 0 12 7 16 15 3 8 4 15 2 15 -2 0
-9 -7 -16 -15z"/>
<path d="M7397 8354 c-65 -34 -161 -133 -231 -237 -111 -168 -260 -465 -335
-671 l-22 -59 65 61 c115 107 229 172 370 212 112 31 199 26 286 -19 76 -38
217 -142 350 -259 92 -81 95 -83 98 -57 5 40 -26 253 -55 385 -59 265 -166
506 -264 597 -81 73 -178 91 -262 47z"/>
<path d="M6460 1629 c19 -19 71 -65 115 -104 43 -38 91 -81 105 -95 15 -14 62
-56 105 -95 43 -38 107 -97 142 -129 35 -32 73 -68 86 -78 12 -11 69 -63 126
-116 57 -53 113 -102 125 -109 11 -7 18 -12 14 -13 -4 0 16 -21 45 -47 263
-238 836 -811 837 -835 0 -5 135 -8 300 -8 l299 0 -67 63 c-38 34 -83 76 -103
92 -92 80 -166 143 -184 158 -99 78 -191 153 -195 158 -21 25 -403 306 -590
434 -63 43 -117 81 -120 85 -3 3 -30 22 -60 41 -30 20 -95 62 -143 95 -48 32
-102 66 -118 76 -27 14 -111 67 -319 201 -36 23 -88 55 -117 72 -28 16 -82 48
-119 70 -37 22 -83 49 -103 60 -20 12 -49 29 -66 39 -29 18 -29 18 5 -15z"/>
<path d="M15985 1100 c3 -5 8 -10 11 -10 2 0 4 5 4 10 0 6 -5 10 -11 10 -5 0
-7 -4 -4 -10z"/>
</g>
</svg>
